<svg id="Layer_1" enable-background="new 0 0 512 512" height="512" viewBox="0 0 512 512" width="512" xmlns="http://www.w3.org/2000/svg"><path d="m61 256c0 107.52 87.48 195 195 195 42.949 0 82.57-14.128 114.825-37.747l-272.078-272.08c-23.62 32.256-37.747 71.876-37.747 114.827z" fill="none"/><path d="m256 0c-70.305 0-134.055 29.597-180.229 75.771s-75.771 109.924-75.771 180.229c0 140.61 115.39 256 256 256 70.305 0 134.055-29.599 180.229-75.773s75.771-109.922 75.771-180.227c0-140.61-115.39-256-256-256zm0 451c-107.52 0-195-87.48-195-195 0-42.951 14.127-82.571 37.747-114.827l272.078 272.08c-32.255 23.619-71.876 37.747-114.825 37.747zm157.253-80.175-272.08-272.078c32.256-23.62 71.876-37.747 114.827-37.747 107.52 0 195 87.48 195 195 0 42.949-14.128 82.57-37.747 114.825z" fill="#ff637b"/><path d="m256 0c-70.305 0-134.055 29.597-180.229 75.771l360.458 360.456c46.174-46.174 75.771-109.922 75.771-180.227 0-140.61-115.39-256-256-256zm-114.827 98.747c32.256-23.62 71.876-37.747 114.827-37.747 107.52 0 195 87.48 195 195 0 42.949-14.128 82.57-37.747 114.825z" fill="#e63950"/></svg>